#define bullet_width 5
#define bullet_height 5
static unsigned char bullet_bits[] = {
   0x02, 0x06, 0x0e, 0x06, 0x02 };
